<?xml version="1.0" standalone="no"?>
<!DOCTYPE svg PUBLIC "-//W3C//DTD SVG 20010904//EN"
 "http://www.w3.org/TR/2001/REC-SVG-20010904/DTD/svg10.dtd">
<svg version="1.0" xmlns="http://www.w3.org/2000/svg"
 width="1063.000000pt" height="646.000000pt" viewBox="0 0 1063.000000 646.000000"
 preserveAspectRatio="xMidYMid meet">

<g transform="translate(0.000000,646.000000) scale(0.100000,-0.100000)"
fill="#000000" stroke="none">
<path d="M5280 6233 l0 -223 55 0 55 0 0 80 c0 105 14 105 77 1 l48 -79 59 -6
c32 -4 60 -5 63 -3 2 3 -21 43 -52 89 l-56 85 42 41 c41 42 41 43 37 102 -3
49 -10 65 -33 90 -33 34 -51 38 -192 43 l-103 3 0 -223z m210 107 c24 -24 24
-29 4 -58 -12 -17 -25 -22 -60 -22 l-44 0 0 50 0 50 40 0 c27 0 47 -7 60 -20z"/>
<path d="M4843 6418 l-73 -10 1 -31 c0 -18 10 -115 22 -217 l22 -185 45 -3
c66 -3 69 1 58 92 -11 88 -7 96 50 96 82 0 134 46 139 123 5 62 -9 93 -56 124
-38 25 -81 28 -208 11z m157 -107 c14 -27 3 -50 -29 -57 -14 -3 -34 -8 -45
-11 -23 -6 -36 12 -36 55 0 32 0 32 50 32 38 0 52 -4 60 -19z"/>
<path d="M5909 6383 c-140 -71 -169 -251 -58 -362 133 -133 360 -56 385 132
14 98 -38 190 -130 233 -69 32 -128 31 -197 -3z m161 -98 c82 -42 78 -170 -6
-210 -40 -19 -67 -19 -102 -1 -65 33 -87 96 -57 160 29 62 102 84 165 51z"/>
<path d="M6480 6306 c0 -3 -29 -96 -65 -207 -36 -110 -65 -204 -65 -208 0 -12
170 -61 209 -61 126 0 221 96 221 224 0 116 -66 188 -212 230 -32 9 -64 19
-73 22 -8 3 -15 3 -15 0z m158 -158 c50 -47 46 -136 -8 -190 -23 -22 -37 -28
-72 -27 -80 1 -80 1 -44 114 47 146 42 138 74 130 15 -3 37 -16 50 -27z"/>
<path d="M4130 6255 c-69 -23 -124 -46 -124 -51 5 -25 127 -400 133 -406 5 -6
244 65 259 77 4 3 -20 69 -29 79 -4 5 -35 -1 -70 -13 -35 -11 -68 -21 -74 -21
-7 0 -16 16 -22 35 l-11 34 64 21 c35 12 64 24 64 27 0 15 -24 83 -29 83 -3 0
-34 -9 -68 -19 l-62 -19 -10 31 c-6 16 -11 33 -11 38 0 4 34 17 76 30 69 21
75 24 70 45 -8 30 -25 74 -28 73 -2 0 -59 -20 -128 -44z"/>
<path d="M3733 6107 c-24 -11 -43 -24 -43 -29 0 -4 24 -60 54 -123 30 -63 53
-115 51 -115 -2 0 -70 34 -151 76 l-146 77 -54 -26 -54 -27 100 -200 100 -200
50 25 50 25 -60 120 c-33 66 -57 120 -53 120 3 0 71 -34 150 -75 l143 -75 55
24 54 25 -97 200 c-53 110 -99 200 -102 200 -3 0 -24 -10 -47 -22z"/>
<path d="M6965 5968 c-52 -108 -69 -153 -69 -184 1 -82 75 -155 180 -177 46
-10 59 -8 101 9 47 19 49 21 125 169 42 83 77 153 78 157 0 4 -22 19 -48 32
l-48 24 -65 -129 c-35 -72 -72 -138 -82 -146 -42 -39 -127 0 -127 57 0 15 29
86 64 157 l64 130 -44 21 c-25 12 -48 22 -53 22 -4 0 -39 -64 -76 -142z"/>
<path d="M3153 5791 c-23 -14 -43 -29 -43 -33 0 -11 230 -363 240 -366 8 -3
90 46 90 54 0 4 -231 358 -239 365 -3 3 -25 -6 -48 -20z"/>
<path d="M7595 5750 c-180 -26 -257 -242 -133 -376 51 -56 108 -78 188 -72 79
6 87 14 59 70 -20 43 -23 45 -53 38 -77 -17 -146 38 -146 117 0 38 5 50 33 78
42 42 77 52 125 33 40 -15 82 -68 82 -103 0 -18 7 -24 38 -29 61 -10 72 -8 72
15 0 74 -57 171 -120 204 -42 21 -100 32 -145 25z"/>
<path d="M2830 5555 c-176 -79 -180 -327 -8 -416 25 -13 58 -19 100 -19 125 0
214 83 225 210 6 67 7 66 -63 49 -41 -11 -44 -14 -44 -44 0 -44 -40 -91 -89
-106 -96 -29 -183 79 -137 170 21 40 59 61 110 61 44 0 46 1 66 47 11 25 18
49 15 52 -14 14 -141 11 -175 -4z"/>
<path d="M8011 5456 l-33 -34 41 -37 41 -37 -82 -91 c-46 -49 -98 -107 -117
-129 l-34 -39 34 -35 c18 -19 38 -33 44 -32 6 2 61 58 124 126 l113 123 40
-37 40 -36 29 28 c16 15 29 33 29 39 0 10 -98 103 -216 207 -20 17 -21 17 -53
-16z"/>
<path d="M2453 5158 c-56 -9 -95 -31 -128 -70 -40 -47 -55 -89 -55 -155 0 -98
58 -181 149 -211 145 -50 301 59 301 209 0 87 -2 90 -58 69 -37 -14 -47 -23
-48 -42 -1 -12 -2 -33 -3 -45 -4 -61 -96 -114 -155 -89 -124 53 -100 215 34
233 34 5 39 9 45 40 3 19 8 40 11 47 7 17 -37 24 -93 14z"/>
<path d="M8240 4994 c-88 -80 -160 -149 -160 -153 0 -9 64 -71 74 -71 4 0 79
66 167 146 l160 147 -37 38 c-21 22 -39 39 -41 39 -1 0 -75 -66 -163 -146z"/>
<path d="M5280 5105 c-94 -18 -218 -79 -290 -143 -208 -187 -258 -481 -123
-735 36 -68 497 -537 528 -537 14 0 100 80 261 243 263 265 287 298 324 443
92 358 -170 712 -545 738 -50 3 -108 0 -155 -9z m278 -372 l3 -73 60 0 c100 0
99 2 99 -163 0 -98 -4 -147 -12 -155 -7 -7 -40 -12 -80 -12 l-68 0 0 -68 c0
-40 -5 -73 -12 -80 -8 -8 -57 -12 -153 -12 -96 0 -145 4 -153 12 -7 7 -12 40
-12 80 l0 68 -68 0 c-40 0 -73 5 -80 12 -8 8 -12 57 -12 155 0 165 -1 163 99
163 l61 0 0 68 c0 38 3 72 7 76 4 3 77 5 162 4 l156 -3 3 -72z"/>
<path d="M8516 4809 c-40 -10 -96 -46 -128 -84 -10 -11 -25 -44 -34 -74 -32
-105 17 -215 117 -265 93 -46 185 -30 261 45 72 72 88 162 44 255 -28 59 -75
100 -142 120 -53 16 -62 16 -118 3z m141 -143 c73 -79 18 -196 -92 -196 -51 0
-105 51 -111 105 -6 49 10 82 56 113 50 34 104 26 147 -22z"/>
<path d="M1952 4599 c-18 -28 -32 -54 -30 -58 6 -16 273 -370 279 -371 4 0 20
21 37 47 l30 46 -25 34 -25 33 42 66 c36 54 47 64 64 60 12 -3 30 -8 41 -11
16 -4 27 6 52 45 33 49 33 50 10 55 -12 3 -116 28 -230 55 -115 28 -209 50
-210 50 -1 0 -17 -23 -35 -51z m201 -94 l58 -16 -22 -39 c-13 -22 -26 -40 -30
-40 -9 0 -99 104 -99 114 0 4 8 5 18 2 9 -2 43 -12 75 -21z"/>
<path d="M8800 4244 c-107 -52 -196 -96 -197 -98 -6 -6 40 -96 49 -96 5 0 58
25 119 56 61 30 113 53 115 51 2 -2 -30 -68 -71 -147 -41 -78 -75 -147 -75
-151 0 -14 44 -99 51 -99 4 0 95 43 203 95 l197 94 -26 50 -25 51 -115 -57
c-63 -32 -116 -55 -119 -52 -3 3 28 70 70 150 l75 144 -23 48 c-12 27 -25 50
-28 52 -3 2 -93 -39 -200 -91z"/>
<path d="M1743 4246 l-28 -57 115 -109 c110 -105 113 -110 80 -105 -148 21
-275 34 -281 27 -4 -4 -16 -28 -27 -54 l-21 -48 22 -5 c12 -2 117 -13 232 -24
237 -22 220 -26 251 56 l17 45 -166 166 -166 165 -28 -57z"/>
<path d="M4180 2844 c-267 -57 -480 -224 -595 -465 -57 -120 -77 -214 -77
-359 0 -153 22 -245 87 -375 88 -173 207 -291 381 -376 138 -68 259 -93 404
-85 139 7 215 27 335 85 148 72 276 190 358 330 l17 30 -152 79 c-172 89 -148
90 -217 -2 -39 -53 -127 -115 -209 -147 -77 -31 -239 -33 -325 -5 -129 42
-248 156 -298 283 -33 86 -38 239 -10 330 39 131 125 233 243 293 157 78 361
63 507 -37 48 -33 113 -103 141 -151 8 -15 28 -7 165 62 l155 78 -22 37 c-157
259 -430 413 -730 410 -51 0 -122 -7 -158 -15z"/>
<path d="M10 2838 c0 -2 132 -370 294 -818 l294 -815 202 0 203 0 293 815
c162 448 294 816 294 818 0 1 -90 2 -199 2 l-199 0 -194 -580 c-106 -319 -195
-580 -198 -580 -3 0 -92 261 -198 580 l-194 580 -199 0 c-109 0 -199 -1 -199
-2z"/>
<path d="M2271 2818 c-5 -13 -135 -375 -290 -806 -155 -430 -284 -789 -287
-797 -6 -14 18 -15 187 -13 l193 3 48 153 49 152 309 0 309 0 49 -152 49 -153
192 -3 c180 -2 192 -1 187 15 -4 10 -136 378 -295 818 l-288 800 -202 3 c-201
2 -201 2 -210 -20z m314 -675 c54 -170 100 -314 103 -320 3 -10 -43 -13 -208
-13 -165 0 -211 3 -208 13 3 6 49 150 104 320 54 169 101 307 104 307 3 0 50
-138 105 -307z"/>
<path d="M5490 2020 l0 -820 450 0 450 0 0 160 0 160 -270 0 -270 0 0 660 0
660 -180 0 -180 0 0 -820z"/>
<path d="M6740 2020 l0 -820 180 0 180 0 0 820 0 820 -180 0 -180 0 0 -820z"/>
<path d="M7600 2020 l0 -820 180 0 180 0 2 540 3 541 399 -541 399 -540 184 0
183 0 0 820 0 820 -175 0 -175 0 0 -542 c0 -530 0 -542 -19 -523 -10 11 -193
255 -406 543 l-387 522 -184 0 -184 0 0 -820z"/>
<path d="M9640 2020 l0 -820 490 0 490 0 0 160 0 160 -310 0 -310 0 0 170 0
170 265 0 265 0 0 160 0 160 -265 0 -265 0 0 175 0 175 310 0 310 0 0 155 0
155 -490 0 -490 0 0 -820z"/>
<path d="M4633 340 c-30 -12 -38 -46 -19 -75 l16 -25 764 0 c726 0 764 1 779
18 22 25 21 48 -3 72 -20 20 -33 20 -767 19 -412 0 -758 -4 -770 -9z"/>
</g>
</svg>
